<svg width="16" height="16" viewBox="0 0 32 32" fill="none" xmlns="http://www.w3.org/2000/svg">
<path fill-rule="evenodd" clip-rule="evenodd" d="M16 2C16 9.73199 21.3726 16 28 16C21.3726 16 16 22.268 16 30C16 22.268 10.6274 16 4 16C10.6274 16 16 9.73199 16 2Z" fill="#F2994A"/>
<path fill-rule="evenodd" clip-rule="evenodd" d="M2 7C4.76142 7 7 4.76142 7 2C7 4.76142 9.23858 7 12 7C9.23858 7 7 9.23858 7 12C7 9.23858 4.76142 7 2 7Z" fill="#F2994A"/>
<path fill-rule="evenodd" clip-rule="evenodd" d="M25.7143 20H25.7143C25.7143 22.7614 27.6331 25 30 25C27.6331 25 25.7143 27.2386 25.7143 30H25.7143C25.7143 27.2386 23.7955 25 21.4286 25C23.7955 25 25.7143 22.7614 25.7143 20Z" fill="#F2994A"/>
</svg>
